<svg width="80" height="80" viewBox="0 0 80 80" fill="none" xmlns="http://www.w3.org/2000/svg">
<rect width="80" height="80" fill="#E5E8EB"/>
<path d="M57 42V25C57 24.4696 56.7893 23.9609 56.4142 23.5858C56.0391 23.2107 55.5304 23 55 23H25C24.4696 23 23.9609 23.2107 23.5858 23.5858C23.2107 23.9609 23 24.4696 23 25V55C23 55.5304 23.2107 56.0391 23.5858 56.4142C23.9609 56.7893 24.4696 57 25 57H42" stroke="#989CA3" stroke-width="4"/>
<path d="M40 49L49 40.5V43C49 43 47 44 45.5 45.5C43.841 47.159 43 49 43 49H40ZM40 49L36.5 44.5L33 49H40Z" stroke="#989CA3" stroke-width="4"/>
<path d="M36.5 44.5L33 49H40L36.5 44.5ZM49 40.5L40 49H43C43 49 43.841 47.159 45.5 45.5C47 44 49 43 49 43V40.5Z" fill="#989CA3"/>
<path fill-rule="evenodd" clip-rule="evenodd" d="M62 54C62 56.1217 61.1571 58.1566 59.6569 59.6569C58.1566 61.1571 56.1217 62 54 62C51.8783 62 49.8434 61.1571 48.3431 59.6569C46.8429 58.1566 46 56.1217 46 54C46 51.8783 46.8429 49.8434 48.3431 48.3431C49.8434 46.8429 51.8783 46 54 46C56.1217 46 58.1566 46.8429 59.6569 48.3431C61.1571 49.8434 62 51.8783 62 54ZM57.05 49.218L58.79 50.958L55.745 54.004L58.791 57.05L57.051 58.79L54.004 55.745L50.958 58.791L49.218 57.051L52.264 54.004L49.218 50.958L50.958 49.218L54.004 52.264L57.05 49.218Z" fill="#989CA3"/>
<path d="M33 31H31V33H33V31Z" stroke="#989CA3" stroke-width="4"/>
</svg>
